<svg xmlns="http://www.w3.org/2000/svg" version="1.1" xmlns:xlink="http://www.w3.org/1999/xlink" xmlns:svgjs="http://svgjs.com/svgjs" width="32" height="32"><svg width="32" height="32" viewBox="0 0 32 32" fill="none" xmlns="http://www.w3.org/2000/svg">
<path d="M8.69075 1.09999H15.7468C18.0428 1.09999 19.7648 1.71599 20.9128 2.94799C22.0608 4.17999 22.6348 5.98599 22.6348 8.36599V23.234C22.6348 25.614 22.0608 27.42 20.9128 28.652C19.7648 29.884 18.0428 30.5 15.7468 30.5H8.69075V1.09999ZM15.6628 26.3C16.4188 26.3 16.9928 26.076 17.3848 25.628C17.8048 25.18 18.0148 24.452 18.0148 23.444V8.15599C18.0148 7.14799 17.8048 6.41999 17.3848 5.97199C16.9928 5.52399 16.4188 5.29999 15.6628 5.29999H13.3108V26.3H15.6628Z" fill="#3D5DFF"></path>
</svg><style>@media (prefers-color-scheme: light) { :root { filter: none; } }
</style></svg>